<?xml version="1.0" encoding="UTF-8" standalone="no"?>
<!-- Created with Inkscape (http://www.inkscape.org/) -->

<svg
   width="10in"
   height="10in"
   viewBox="0 0 253.99999 254"
   version="1.1"
   id="svg1"
   xml:space="preserve"
   inkscape:version="1.4 (e7c3feb1, 2024-10-09)"
   sodipodi:docname="drawing.svg"
   inkscape:export-filename="fwlogo.svg"
   inkscape:export-xdpi="51.200001"
   inkscape:export-ydpi="51.200001"
   xmlns:inkscape="http://www.inkscape.org/namespaces/inkscape"
   xmlns:sodipodi="http://sodipodi.sourceforge.net/DTD/sodipodi-0.dtd"
   xmlns="http://www.w3.org/2000/svg"
   xmlns:svg="http://www.w3.org/2000/svg"><sodipodi:namedview
     id="namedview1"
     pagecolor="#ffffff"
     bordercolor="#000000"
     borderopacity="0.25"
     inkscape:showpageshadow="2"
     inkscape:pageopacity="0.0"
     inkscape:pagecheckerboard="0"
     inkscape:deskcolor="#d1d1d1"
     inkscape:document-units="mm"
     inkscape:zoom="0.1748408"
     inkscape:cx="1223.9706"
     inkscape:cy="1590.0178"
     inkscape:window-width="1920"
     inkscape:window-height="1085"
     inkscape:window-x="1512"
     inkscape:window-y="25"
     inkscape:window-maximized="1"
     inkscape:current-layer="svg1" /><defs
     id="defs1"><inkscape:path-effect
       effect="fillet_chamfer"
       id="path-effect4"
       is_visible="true"
       lpeversion="1"
       nodesatellites_param="F,0,0,1,0,3.7041666,0,1 @ F,0,0,1,0,3.7041666,0,1 @ F,0,0,1,0,3.7041666,0,1 @ F,0,0,1,0,3.7041666,0,1"
       radius="14"
       unit="px"
       method="auto"
       mode="F"
       chamfer_steps="1"
       flexible="false"
       use_knot_distance="true"
       apply_no_radius="true"
       apply_with_radius="true"
       only_selected="false"
       hide_knots="false" /><inkscape:path-effect
       effect="fillet_chamfer"
       id="path-effect1"
       is_visible="true"
       lpeversion="1"
       nodesatellites_param="F,0,0,1,0,22.754166,0,1 @ F,0,0,1,0,22.754166,0,1 @ F,0,0,1,0,22.754166,0,1 @ F,0,0,1,0,22.754166,0,1"
       radius="86"
       unit="px"
       method="auto"
       mode="F"
       chamfer_steps="1"
       flexible="false"
       use_knot_distance="true"
       apply_no_radius="true"
       apply_with_radius="true"
       only_selected="false"
       hide_knots="false" /></defs><path
     style="fill:#ffffff;fill-opacity:1;stroke:#000000;stroke-width:12.663;stroke-linejoin:round;stroke-dasharray:none;stroke-opacity:1"
     id="rect1"
     width="137.74881"
     height="141.2"
     x="38.687183"
     y="53.642269"
     inkscape:path-effect="#path-effect1"
     sodipodi:type="rect"
     d="m 61.441349,53.642269 h 92.240481 a 22.754166,22.754166 45 0 1 22.75416,22.754166 V 172.0881 a 22.754166,22.754166 135 0 1 -22.75416,22.75417 H 61.441349 A 22.754166,22.754166 45 0 1 38.687183,172.0881 V 76.396435 A 22.754166,22.754166 135 0 1 61.441349,53.642269 Z"
     transform="matrix(1.4033409,0,0,1.4033409,-23.945576,-45.581139)"
     inkscape:label="Main Rectangle" /><g
     inkscape:label="Lines"
     inkscape:groupmode="layer"
     id="layer1"><path
       style="fill:#000000;fill-opacity:1;stroke:#000000;stroke-width:13.8246;stroke-linecap:round;stroke-linejoin:round;stroke-dasharray:none;stroke-opacity:1"
       d="M 63.075601,198.19193 H 144.63123"
       id="path4"
       sodipodi:nodetypes="cc"
       inkscape:label="Bottom" /><path
       style="fill:#000000;fill-opacity:1;stroke:#000000;stroke-width:13.8246;stroke-linecap:round;stroke-linejoin:round;stroke-dasharray:none;stroke-opacity:1"
       d="M 63.075601,176.80125 H 190.9244"
       id="path3"
       inkscape:label="Middle" /><path
       style="fill:#000000;fill-opacity:1;stroke:#000000;stroke-width:13.8246;stroke-linecap:round;stroke-linejoin:round;stroke-dasharray:none;stroke-opacity:1"
       d="M 63.075601,155.41056 H 190.9244"
       id="path2"
       inkscape:label="Top" /></g><g
     id="layer2"
     inkscape:label="FW"
     transform="matrix(1.4033409,0,0,1.4033409,-51.224294,-49.451173)"><rect
       style="fill:#000000;fill-opacity:1;stroke:#000000;stroke-width:10.8497;stroke-linejoin:round;stroke-dasharray:none;stroke-opacity:1"
       id="rect2"
       width="89.243042"
       height="47.828938"
       x="82.378479"
       y="80.652901"
       inkscape:label="Background" /><path
       style="font-size:57.7001px;line-height:0.4;font-family:'Trebuchet MS';-inkscape-font-specification:'Trebuchet MS';text-align:center;letter-spacing:2.64583px;text-anchor:middle;fill:#ffffff;stroke:#ffffff;stroke-width:1.44159;stroke-linecap:round;stroke-linejoin:round"
       d="m 94.412034,87.968718 v 11.466768 h 14.509546 v 4.789554 H 94.412034 v 19.94711 H 88.777259 V 82.89742 h 25.497361 v 5.071298 z m 59.021756,36.766912 h -1.77495 l -9.83269,-28.455618 -9.18468,28.455618 h -1.77495 L 117.85018,82.89742 h 5.86017 l 8.28312,28.82188 9.07199,-28.82188 h 1.97217 l 8.95929,28.76553 8.42399,-28.76553 h 5.86017 z"
       id="text4"
       inkscape:label="Text"
       aria-label="FW" /></g><g
     id="g5"
     transform="matrix(1.2704486,0,0,1.2729322,80.029295,-126.97849)"
     inkscape:label="Markdown Logo"><rect
       style="fill:#ffffff;fill-opacity:1;stroke:none;stroke-width:1.94232;stroke-linecap:round;stroke-linejoin:round;stroke-dasharray:none;stroke-opacity:1"
       id="rect5"
       width="49.803341"
       height="27.562395"
       x="65.221909"
       y="254.20171"
       inkscape:label="Background" /><path
       d="M 115.83774,250.00152 H 66.188425 c -2.31202,0 -4.18883,1.87681 -4.18883,4.17976 v 27.33614 c 0,2.31201 1.87681,4.18881 4.18883,4.18881 h 49.658385 c 2.31201,0 4.18882,-1.8768 4.17976,-4.17974 v -27.34521 c 0,-2.30295 -1.87681,-4.17976 -4.18883,-4.17976 z m -23.147315,27.33614 h -5.57604 v -10.88005 l -5.57602,6.9723 -5.57603,-6.9723 v 10.88005 h -5.59416 V 258.3701 h 5.57603 l 5.57602,6.9723 5.57604,-6.9723 h 5.57602 v 18.96756 z m 12.267275,0.28107 -8.368585,-9.76485 h 5.576025 v -9.48378 h 5.57604 v 9.48378 h 5.57602 z"
       id="path1"
       style="stroke-width:0.0906672"
       inkscape:label="Markdown" /></g></svg>
